<?xml version="1.0" standalone="no"?>
<!DOCTYPE svg PUBLIC "-//W3C//DTD SVG 1.0//EN" "http://www.w3.org/TR/2001/REC-SVG-20010904/DTD/svg10.dtd">
<svg width="960" height="240">
<defs>
	<linearGradient id="grad1" x1="0%" y1="0%" x2="0%" y2="100%">
	  <stop offset="0%" style="stop-color:rgb(255,255,255);stop-opacity:1" />
	  <stop offset="100%" style="stop-color:rgb(0,100,255);stop-opacity:1" />
	</linearGradient>
	<linearGradient id="grad-texto" x1="0%" y1="0%" x2="0%" y2="100%">
	  <stop offset="0%" style="stop-color:black;stop-opacity:1" />
	  <stop offset="100%" style="stop-color:rgb(100,100,100);stop-opacity:1" />
	</linearGradient>
  </defs>
<line x1="480" y1="60" x2="240" y2="120" style="stroke:black;stroke-width:2" />
<line x1="480" y1="60" x2="720" y2="120" style="stroke:black;stroke-width:2" />
<g transform="translate(480,60)"><circle cx="0" cy="0" r="20" stroke="black" stroke-width="3" style="fill:black">
</circle>
<text x="-7" y="7" style="fill:white" font-size="20">11</text>
<text x="-14" y="35" style="fill:black" font-size="15">h=3</text></g>
<line x1="240" y1="120" x2="120" y2="180" style="stroke:black;stroke-width:2" />
<line x1="240" y1="120" x2="360" y2="180" style="stroke:black;stroke-width:2" />
<g transform="translate(240,120)"><circle cx="0" cy="0" r="20" stroke="black" stroke-width="3" style="fill:red">
</circle>
<text x="-7" y="7" style="fill:white" font-size="20">7</text>
<text x="-14" y="35" style="fill:black" font-size="15">h=2</text></g>
<line x1="120" y1="180" x2="180" y2="240" style="stroke:black;stroke-width:2" />
<g transform="translate(120,180)"><circle cx="0" cy="0" r="20" stroke="black" stroke-width="3" style="fill:black">
</circle>
<text x="-7" y="7" style="fill:white" font-size="20">2</text>
<text x="-14" y="35" style="fill:black" font-size="15">h=1</text></g>
<g transform="translate(180,240)"><circle cx="0" cy="0" r="20" stroke="black" stroke-width="3" style="fill:red">
</circle>
<text x="-7" y="7" style="fill:white" font-size="20">5</text>
<text x="-14" y="35" style="fill:black" font-size="15">h=0</text></g>
<g transform="translate(360,180)"><circle cx="0" cy="0" r="20" stroke="black" stroke-width="3" style="fill:black">
</circle>
<text x="-7" y="7" style="fill:white" font-size="20">8</text>
<text x="-14" y="35" style="fill:black" font-size="15">h=0</text></g>
<line x1="720" y1="120" x2="840" y2="180" style="stroke:black;stroke-width:2" />
<g transform="translate(720,120)"><circle cx="0" cy="0" r="20" stroke="black" stroke-width="3" style="fill:black">
</circle>
<text x="-7" y="7" style="fill:white" font-size="20">14</text>
<text x="-14" y="35" style="fill:black" font-size="15">h=1</text></g>
<g transform="translate(840,180)"><circle cx="0" cy="0" r="20" stroke="black" stroke-width="3" style="fill:red">
</circle>
<text x="-7" y="7" style="fill:white" font-size="20">15</text>
<text x="-14" y="35" style="fill:black" font-size="15">h=0</text></g>
</svg>
